<svg xmlns="http://www.w3.org/2000/svg" viewBox="0 0 722.19 185.11"><defs><style>.cls-1,.cls-27{fill:#68a9cf;}.cls-1,.cls-10,.cls-11,.cls-12,.cls-13,.cls-15,.cls-2,.cls-7,.cls-8,.cls-9{stroke:#fff;stroke-linecap:round;stroke-linejoin:round;}.cls-1,.cls-10,.cls-11,.cls-12,.cls-7,.cls-8,.cls-9{stroke-width:8.75px;}.cls-2,.cls-28{font-size:16.65px;letter-spacing:0.2em;}.cls-12,.cls-2,.cls-28,.cls-34{fill:#e60012;}.cls-13,.cls-15,.cls-2{stroke-width:8.75px;}.cls-13,.cls-15,.cls-2,.cls-28,.cls-35,.cls-36{font-family:GenJyuuGothicL-Heavy, Gen Jyuu GothicL;font-weight:800;}.cls-3{letter-spacing:0.2em;}.cls-4{letter-spacing:0.19em;}.cls-5{letter-spacing:0.19em;}.cls-6{letter-spacing:0.2em;}.cls-29,.cls-7{fill:#fdd000;}.cls-30,.cls-8{fill:#00b9ef;}.cls-31,.cls-9{fill:#ea5520;}.cls-10,.cls-32{fill:#f08300;}.cls-11,.cls-33{fill:#abcd03;}.cls-13,.cls-35{font-size:14.99px;fill:#fff;}.cls-14{letter-spacing:0em;}.cls-15,.cls-36{font-size:16.24px;fill:#898989;letter-spacing:0.06em;}.cls-16{letter-spacing:0.08em;}.cls-17{letter-spacing:0.04em;}.cls-18{letter-spacing:0.01em;}.cls-19{letter-spacing:-0.03em;}.cls-20{letter-spacing:0.02em;}.cls-21{letter-spacing:0.09em;}.cls-22{letter-spacing:0.06em;}.cls-23{letter-spacing:0.05em;}.cls-24{letter-spacing:0.01em;}.cls-25{letter-spacing:0em;}.cls-26{letter-spacing:0.1em;}</style></defs><title>wsa_logo</title><g id="レイヤー_2" data-name="レイヤー 2"><g id="テキスト"><path class="cls-1" d="M645,109.11l-.24,2a14.34,14.34,0,0,0,1.4.88l1.7-1.12.29,2c.25.1.51.18.78.26a7.94,7.94,0,0,0,.8.22l1.35-1.51.8,1.87a15.16,15.16,0,0,0,1.65,0l.91-1.81,1.26,1.59a15,15,0,0,0,1.61-.37l.41-2,1.62,1.22c.5-.24,1-.5,1.46-.78l-.11-2,1.88.76a16,16,0,0,0,1.21-1.13l-.64-1.93,2,.25a14.49,14.49,0,0,0,.88-1.41l-1.12-1.7,2-.28c.1-.26.19-.52.27-.79s.15-.53.21-.8l-1.51-1.35,1.87-.79a15.42,15.42,0,0,0,0-1.66L666,97.87l1.59-1.25a14,14,0,0,0-.37-1.61l-2-.41L666.4,93a13.63,13.63,0,0,0-.78-1.46l-2,.12.76-1.88a12.94,12.94,0,0,0-1.13-1.21l-1.93.63.25-2c-.31-.22-.64-.4-1-.6l1.47-1.65,1,2.34a17.65,17.65,0,0,0,2.06.06l1.15-2.26,1.56,2a20.18,20.18,0,0,0,2-.47l.52-2.49,2,1.52c.31-.14.62-.29.92-.46s.61-.33.9-.51l-.14-2.54,2.35,1a16.89,16.89,0,0,0,1.51-1.41l-.79-2.41,2.51.3a17.6,17.6,0,0,0,1.09-1.75l-1.39-2.12,2.51-.36a17.34,17.34,0,0,0,.6-2l-1.89-1.69,2.33-1a17.9,17.9,0,0,0,.07-2.07l-2.26-1.14,2-1.57a18.19,18.19,0,0,0-.46-2l-2.49-.51,1.52-2c-.14-.31-.3-.62-.46-.93s-.34-.61-.52-.9l-2.53.14,1-2.35a20.15,20.15,0,0,0-1.41-1.51l-2.41.8.3-2.52A16.66,16.66,0,0,0,673.42,53l-2.12,1.39L671,51.83a17.34,17.34,0,0,0-2-.6l-1.69,1.89-1-2.33a20.45,20.45,0,0,0-2.07-.07L663.07,53l-1.56-2a18.25,18.25,0,0,0-2,.47L659,53.94l-2-1.52-.92.46c-.31.17-.61.34-.9.52l.14,2.53-2.35-1a17,17,0,0,0-1.51,1.42l.8,2.4-2.52-.3a17.75,17.75,0,0,0-1.09,1.76L650,62.38l-2.51.35a17.5,17.5,0,0,0-.6,2l1.89,1.69-2.33,1a17.75,17.75,0,0,0-.07,2.07l2.26,1.14-2,1.56a17.21,17.21,0,0,0,.46,2l2.49.52-1.52,2c.14.31.3.62.46.93s.34.6.52.89l2.53-.14-1,2.36a18.24,18.24,0,0,0,1.41,1.5l2.41-.79-.3,2.51a16.74,16.74,0,0,0,1.76,1.1l2.12-1.4.35,2.51c.42.16.86.27,1.29.39l-1.23.81-.29-2-.79-.26-.8-.22-1.35,1.52-.79-1.88a15.42,15.42,0,0,0-1.66,0l-.91,1.82-1.25-1.6a14.49,14.49,0,0,0-1.61.38l-.41,2L647,85.86c-.5.24-1,.5-1.46.79l.12,2-1.88-.76c-.11.09-.21.2-.31.3l-.67-1L644,87a9.32,9.32,0,0,0,.3-1l-.95-.85,1.17-.49a9,9,0,0,0,0-1l-1.13-.57,1-.78c0-.17-.07-.34-.11-.51s-.08-.33-.13-.5L643,81l.76-1a7.21,7.21,0,0,0-.49-.91l-1.26.07.47-1.18a10,10,0,0,0-.71-.75l-1.2.4.15-1.26a8.69,8.69,0,0,0-.88-.55l-1.06.7-.18-1.26a8.1,8.1,0,0,0-1-.3l-.84,1-.5-1.17a8.8,8.8,0,0,0-1,0l-.57,1.13-.78-1-.51.1-.5.14-.26,1.24-1-.76a8.71,8.71,0,0,0-.91.48l.07,1.27-1.18-.47a8.39,8.39,0,0,0-.75.71l.4,1.2-1.26-.15a8.69,8.69,0,0,0-.55.88l.7,1.06-1.26.17a9.32,9.32,0,0,0-.3,1l.94.85-1.16.5c0,.34,0,.68,0,1l1.14.57-1,.78c0,.17.06.34.1.51s.09.33.14.5l1.24.26-.77,1a8.77,8.77,0,0,0,.49.91l1.27-.07-.47,1.18a9.87,9.87,0,0,0,.7.75l1.21-.4-.15,1.26a9.8,9.8,0,0,0,.87.55l1.07-.7.17,1.26a9.32,9.32,0,0,0,1,.3l.85-1L634.6,93a9,9,0,0,0,1,0l.57-1.13.78,1,.51-.1.5-.14.26-1.24,1,.76a8.71,8.71,0,0,0,.91-.48l-.07-1.27,1,.39a13.82,13.82,0,0,0-.82,1.32l1.11,1.7-2,.28c-.09.26-.18.52-.26.79s-.15.53-.22.8l1.52,1.35-1.87.8a13,13,0,0,0,0,1.65l1.81.91-1.6,1.25a14.67,14.67,0,0,0,.38,1.62l2,.41-1.22,1.62a13.63,13.63,0,0,0,.78,1.46l2-.12-.76,1.89a16.16,16.16,0,0,0,1.14,1.2Zm13.29-49,3.55,6.63a3.69,3.69,0,0,0-.77,2.56l-6.63,3.55A11,11,0,0,1,658.24,60.12Zm15.32,2.48-6.63,3.54a3.73,3.73,0,0,0-2.56-.77l-3.55-6.63A11,11,0,0,1,673.56,62.6Zm-2.47,15.31-3.55-6.63a3.67,3.67,0,0,0,.77-2.55l6.63-3.55A11,11,0,0,1,671.09,77.91Zm-15.32-2.47,6.63-3.55a3.63,3.63,0,0,0,2.56.77l3.55,6.63A11,11,0,0,1,655.77,75.44ZM630.31,85.82,634,85a1.79,1.79,0,0,0,1.13.7l.85,3.65A5.46,5.46,0,0,1,630.31,85.82Zm3.16-7,.85,3.64a1.82,1.82,0,0,0-.7,1.13L630,84.4A5.46,5.46,0,0,1,633.47,78.77Zm7,3.16-3.64.85a1.81,1.81,0,0,0-1.14-.7l-.85-3.65A5.47,5.47,0,0,1,640.52,81.93Zm-3.16,7-.85-3.64a1.82,1.82,0,0,0,.7-1.13l3.64-.86A5.44,5.44,0,0,1,637.36,89Zm4.68,1.2-.4-1.2.89.11.62,1.88-1.72-.21A6.65,6.65,0,0,0,642,90.18Zm12.48.3-1.74,5.76a2.87,2.87,0,0,0-1.88,1l-5.76-1.74A8.76,8.76,0,0,1,654.52,90.48Zm7.27,10.06L656,98.8a3,3,0,0,0-1-1.89l1.74-5.75A8.77,8.77,0,0,1,661.79,100.54Zm-10.07,7.27,1.75-5.76a3,3,0,0,0,1.88-1l5.76,1.74A8.8,8.8,0,0,1,651.72,107.81Zm-7.26-10.07,5.76,1.75a2.89,2.89,0,0,0,1,1.88l-1.74,5.76A8.78,8.78,0,0,1,644.46,97.74Z"/><path class="cls-1" d="M144,89.67l-10.13-6.75c-1.27-.85-3.4-1.22-3.77-.67l-2.88,4.32s2.4,2,3.11,2.55-.15.94-.41,1.33.74,1,.48,1.44-1.58-.5-1.84-.12,1.07,1.27.81,1.66-1.58-.5-1.84-.11,1.07,1.27.81,1.65-1.58-.5-1.84-.11,1.07,1.27.82,1.66-1.59-.51-1.85-.12,1.07,1.27.82,1.66-1.59-.5-1.85-.12,1.08,1.27.82,1.66-1.59-.5-1.85-.12,1.08,1.28.82,1.66-1.59-.5-1.84-.11,1.07,1.27.81,1.65-1.58-.5-1.84-.11,1.07,1.27.82,1.65-1.59-.5-1.85-.11,1.08,1.27.82,1.65-1.59-.5-1.84-.11,1.07,1.27.81,1.65-.92-.06-1.18.33,1.67,2.38,3.41,3.53c2.21,1.48,4.22,2.31,5,1.23.25-.39-.41-.83-.15-1.22s1.58.5,1.84.11-1.07-1.27-.81-1.66,1.58.5,1.84.12-1.07-1.27-.81-1.66,1.58.5,1.84.12-1.07-1.28-.82-1.66,1.59.5,1.85.11-1.08-1.27-.82-1.65,1.59.5,1.85.11-1.08-1.27-.82-1.66,1.59.5,1.84.12-1.07-1.27-.81-1.66,1.58.5,1.84.12-1.07-1.27-.81-1.66,1.58.5,1.84.12-1.07-1.27-.82-1.66,1.59.5,1.85.12-1.08-1.27-.82-1.66,1.59.5,1.84.12-.59-1.35-.15-1.21c1,.31.53-1.4,1.54-.88l3.55,1.89L146,92.89C146.4,92.34,145.24,90.51,144,89.67Z"/><path class="cls-1" d="M112.68,71.44l-12.07,1.5c-1.51.19-3.37,1.3-3.29,2L98,80.05l4-.1c.9,0,.5.81.56,1.27.08.61,1.25.31,1.3.77s-1.53.66-1.47,1.12,1.65.27,1.7.73-1.53.65-1.47,1.11,1.64.27,1.7.73-1.53.65-1.47,1.11,1.64.27,1.7.73-1.53.65-1.47,1.11,1.64.27,1.7.73-1.53.65-1.47,1.11,1.64.26,1.7.72-1.53.66-1.47,1.12,1.64.26,1.7.72-1.53.66-1.47,1.12,1.64.26,1.7.72-1.53.66-1.47,1.12,1.64.26,1.7.72-1.53.66-1.47,1.12,1.64.26,1.7.72-1.53.65-1.47,1.11,1.64.26,1.7.72-.74.56-.68,1,2.81.71,4.88.45c2.65-.33,4.71-1,4.55-2.31-.06-.46-.85-.36-.91-.82s1.53-.66,1.47-1.12-1.64-.26-1.7-.72,1.53-.66,1.47-1.12-1.64-.27-1.7-.73,1.53-.65,1.47-1.11-1.64-.26-1.7-.72,1.53-.66,1.47-1.12-1.64-.26-1.7-.72,1.53-.66,1.47-1.12-1.64-.26-1.7-.72,1.53-.66,1.47-1.12-1.64-.26-1.7-.72,1.53-.66,1.47-1.12-1.64-.26-1.7-.72,1.53-.66,1.47-1.12-1.64-.26-1.7-.72,1.53-.65,1.47-1.11-1.64-.26-1.7-.72,1.53-.66,1.48-1.12-1.33-.63-.91-.82c1-.43-.51-1.4.6-1.66.84-.21,3.91-.89,3.91-.89l-.64-5.16C116.27,71.86,114.19,71.25,112.68,71.44Z"/><path class="cls-1" d="M72.67,61.1l-5,2.08L57.56,38.71l-4.3-1.8-1.79,4.3L61.52,65.68l-5.05,2.07a2.13,2.13,0,0,0-1.16,2.78l1.06,2.56a2.11,2.11,0,0,0,2.77,1.16l2.16-.89a2.13,2.13,0,1,1,1.62,3.94l-2.17.88A2.13,2.13,0,0,0,59.6,81l14.75,35.92A2.12,2.12,0,0,0,77.12,118l16.2-6.65a2.13,2.13,0,0,0,1.16-2.78L79.73,72.69A2.13,2.13,0,0,0,77,71.53l-2.16.89a2.12,2.12,0,0,1-1.61-3.93l2.16-.89a2.13,2.13,0,0,0,1.16-2.78l-1.06-2.56A2.11,2.11,0,0,0,72.67,61.1Zm8.8,51.39-3.16,1.3L64.88,81.08,68,79.78Zm-5.41-36,13.43,32.7-3.16,1.3L72.9,77.79Z"/><text class="cls-2" transform="translate(510.1 108.59)">花<tspan class="cls-3" x="20.05" y="0">園</tspan><tspan class="cls-4" x="39.97" y="0">中央</tspan><tspan class="cls-5" x="79.57" y="0">公</tspan><tspan class="cls-6" x="99.4" y="0">園</tspan></text><path class="cls-7" d="M385,16.56A12.19,12.19,0,1,1,372.86,4.37,12.19,12.19,0,0,1,385,16.56Z"/><rect class="cls-8" x="367.15" y="33.33" width="11.49" height="147.38"/><path class="cls-9" d="M384.81,34.33l23.93,8.24-23.93,8.28Z"/><path class="cls-8" d="M384.81,54.48l23.93,8.24L384.81,71Z"/><path class="cls-7" d="M384.81,74.62l23.93,8.24-23.93,8.28Z"/><path class="cls-10" d="M384.81,94.77,408.74,103l-23.93,8.28Z"/><path class="cls-11" d="M414,44.4l23.92,8.24L414,60.92Z"/><path class="cls-9" d="M414,64.53l23.92,8.24L414,81.05Z"/><path class="cls-8" d="M414,84.66l23.92,8.24L414,101.18Z"/><path class="cls-7" d="M443.16,54.47l23.92,8.24L443.16,71Z"/><path class="cls-10" d="M443.16,74.55l23.92,8.24-23.92,8.28Z"/><path class="cls-11" d="M472.33,64.5l23.93,8.24L472.33,81Z"/><path class="cls-10" d="M631.81,125.39a4.18,4.18,0,0,0-4.64,1.27l-14.54,17.6-2.25-2.71a4.18,4.18,0,0,0-6.45,5.33l5.47,6.62a4.18,4.18,0,0,0,6.45,0L626.21,141v35.53a4.19,4.19,0,1,0,8.37,0V129.32A4.18,4.18,0,0,0,631.81,125.39Z"/><path class="cls-10" d="M594.86,125.14a4.19,4.19,0,0,0-4.19,4.18v47.17a4.19,4.19,0,1,0,8.37,0V129.32A4.18,4.18,0,0,0,594.86,125.14Z"/><path class="cls-11" d="M658,138.41l-7.74-11.47a4.19,4.19,0,1,0-6.94,4.68l7.74,11.47a4.18,4.18,0,0,0,3.47,1.85,4.13,4.13,0,0,0,2.34-.72A4.19,4.19,0,0,0,658,138.41Z"/><path class="cls-11" d="M678.15,125.81a4.19,4.19,0,0,0-5.81,1.13l-14.52,21.51a4.24,4.24,0,0,0-.71,2.34v25.68a4.19,4.19,0,1,0,8.37,0v-24.4l13.8-20.45A4.2,4.2,0,0,0,678.15,125.81Z"/><path class="cls-11" d="M450,180.73a16,16,0,0,1-15.93-15.93V141.06a15.94,15.94,0,1,1,31.87,0,4.19,4.19,0,1,1-8.37,0,7.57,7.57,0,0,0-15.13,0V164.8a7.57,7.57,0,0,0,15.13,0,4.19,4.19,0,1,1,8.37,0A16,16,0,0,1,450,180.73Z"/><path class="cls-10" d="M410.25,125.08a16,16,0,0,0-15.94,16v35.51a4.19,4.19,0,0,0,8.38,0V141a7.57,7.57,0,1,1,15.13,0v11.21h-7.48a4.19,4.19,0,1,0,0,8.37h7.48v15.93a4.19,4.19,0,0,0,8.37,0V141A16,16,0,0,0,410.25,125.08Z"/><path class="cls-9" d="M489.44,125.08a16,16,0,0,0-15.93,16v35.51a4.19,4.19,0,0,0,8.37,0V141A7.57,7.57,0,1,1,497,141v11.21h-7.48a4.19,4.19,0,1,0,0,8.37H497v15.93a4.19,4.19,0,0,0,8.37,0V141A16,16,0,0,0,489.44,125.08Z"/><path class="cls-8" d="M517.6,180.72a4.19,4.19,0,0,1-4.19-4.18V129.36a4.18,4.18,0,0,1,3.81-4.16c.84-.08,8.44-.68,14.33,2.22,5.7,2.81,12.46,7.59,14.2,19.76,1.14,7.95-.21,16.12-3.61,21.85a33.11,33.11,0,0,1-10.72,10.74,4.19,4.19,0,0,1-4.21-7.24,24.82,24.82,0,0,0,7.73-7.76c2.38-4,3.37-10.46,2.53-16.4-1.11-7.77-4.65-11-9.62-13.44a17.42,17.42,0,0,0-6.06-1.39v43A4.19,4.19,0,0,1,517.6,180.72Z"/><path class="cls-7" d="M578.71,172.35H560.54v-16.9h12.34a4.19,4.19,0,0,0,0-8.37H560.54V133.55h18.17a4.19,4.19,0,0,0,0-8.37H556.35a4.18,4.18,0,0,0-4.18,4.18v47.18a4.19,4.19,0,0,0,4.18,4.19h22.36a4.19,4.19,0,0,0,0-8.38Z"/><path class="cls-9" d="M50,128.54A4.18,4.18,0,1,0,41.74,130l8.37,47.23a4.18,4.18,0,0,0,4.11,3.45,4.71,4.71,0,0,0,.74-.06,4.2,4.2,0,0,0,3.39-4.85Z"/><path class="cls-9" d="M87.52,125.13a4.17,4.17,0,0,0-4.86,3.38l-5.41,30.36-6.93-22.25a4.19,4.19,0,0,0-4-2.94h0a4.17,4.17,0,0,0-4,2.94l-5,15.82a4.19,4.19,0,0,0,8,2.5l1-3,8,25.83a4.18,4.18,0,0,0,4,2.94h.27a4.17,4.17,0,0,0,3.85-3.44L90.9,130A4.18,4.18,0,0,0,87.52,125.13Z"/><path class="cls-7" d="M161.41,180.68a4.18,4.18,0,0,1-3.85-2.55l-8.73-20.57a4.18,4.18,0,0,1,1.88-5.32c.25-.14,6.71-3.81,6-11-.35-3.59-2.64-6.15-6.46-7.2a25.14,25.14,0,0,0-5.84-.56v43a4.19,4.19,0,0,1-8.37,0V129.32a4.18,4.18,0,0,1,4.19-4.18h1.31c4,0,7.73,0,10.93.86,7.19,2,11.89,7.38,12.57,14.46a19.35,19.35,0,0,1-7.21,16.92l7.42,17.48a4.18,4.18,0,0,1-2.22,5.49A4.24,4.24,0,0,1,161.41,180.68Z"/><path class="cls-7" d="M328.31,180.68a4.18,4.18,0,0,1-4.19-4.18V129.32a4.18,4.18,0,0,1,4.19-4.18h1.32c4,0,7.72,0,10.92.86,7.19,2,11.89,7.38,12.58,14.46,1.24,12.78-9.93,18.9-10.4,19.16a4.19,4.19,0,0,1-4-7.37c.33-.18,6.73-3.85,6-11-.35-3.59-2.65-6.15-6.47-7.2a25.14,25.14,0,0,0-5.84-.56v43A4.18,4.18,0,0,1,328.31,180.68Z"/><path class="cls-10" d="M176.74,125.14a4.18,4.18,0,0,0-4.19,4.18V176.5a4.19,4.19,0,0,0,8.37,0V129.32A4.18,4.18,0,0,0,176.74,125.14Z"/><path class="cls-10" d="M193.43,153.14l9.8-22.12a4.18,4.18,0,0,0-7.65-3.39L185,151.46a4.2,4.2,0,0,0,0,3.42l10.56,23.34a4.18,4.18,0,0,0,3.82,2.46,4.23,4.23,0,0,0,1.72-.37,4.18,4.18,0,0,0,2.09-5.54Z"/><path class="cls-11" d="M223.42,180.71a17.05,17.05,0,0,1-4.4-.58,13.51,13.51,0,0,1-10.12-14.58,4.18,4.18,0,1,1,8.32.91,5.12,5.12,0,0,0,4,5.58,7.51,7.51,0,0,0,6.33-1,5.24,5.24,0,0,0,1.92-4.4c0-3-4.67-7-8.79-10.65-5.69-5-11.57-10.16-11.57-16.85a13.53,13.53,0,0,1,5.19-11,15.72,15.72,0,0,1,13.6-2.41A13.51,13.51,0,0,1,238,140.31a4.19,4.19,0,0,1-8.33-.86,5.12,5.12,0,0,0-4-5.63,7.55,7.55,0,0,0-6.33,1,5.23,5.23,0,0,0-1.91,4.4c0,2.9,4.63,7,8.72,10.55,5.72,5,11.64,10.21,11.64,17a13.53,13.53,0,0,1-5.2,11A15.1,15.1,0,0,1,223.42,180.71Z"/><path class="cls-9" d="M249.64,125.14a4.18,4.18,0,0,0-4.19,4.18V176.5a4.19,4.19,0,0,0,8.37,0V129.32A4.18,4.18,0,0,0,249.64,125.14Z"/><path class="cls-9" d="M273,125.14a4.18,4.18,0,0,0-4.18,4.18v19.53h-7.17a4.19,4.19,0,0,0,0,8.38h7.17V176.5a4.19,4.19,0,0,0,8.37,0V129.32A4.19,4.19,0,0,0,273,125.14Z"/><path class="cls-8" d="M112.32,125.12a16,16,0,0,0-15.93,15.94v23.7a15.94,15.94,0,0,0,31.87,0v-23.7A16,16,0,0,0,112.32,125.12Zm0,47.2a7.57,7.57,0,0,1-7.56-7.56v-23.7a7.57,7.57,0,0,1,15.13,0v.09a7.82,7.82,0,0,0-7.81,7.83v9.2a7.81,7.81,0,0,0,7.68,7.81A7.55,7.55,0,0,1,112.32,172.32Z"/><path class="cls-8" d="M300.65,125.13a16,16,0,0,0-15.94,16V164.8a15.94,15.94,0,1,0,31.87,0V141.08A16,16,0,0,0,300.65,125.13Zm0,47.24a7.58,7.58,0,0,1-7.57-7.57V141.08a7.57,7.57,0,1,1,15.13,0v.07a7.82,7.82,0,0,0-7.82,7.83v9.2a7.81,7.81,0,0,0,7.7,7.81A7.55,7.55,0,0,1,300.65,172.37Z"/><circle class="cls-12" cx="491.65" cy="102.08" r="12.78"/><text class="cls-13" transform="translate(484.5 108.32)"><tspan class="cls-14">i</tspan><tspan x="4.75" y="0">n </tspan></text><path class="cls-1" d="M674.27,109.63a1.21,1.21,0,0,1-.78-.28,1.23,1.23,0,0,1-.18-1.73l42.32-51.73a1.23,1.23,0,1,1,1.9,1.56l-42.31,51.73A1.22,1.22,0,0,1,674.27,109.63Z"/><path class="cls-1" d="M677,116.94a1.18,1.18,0,0,1-.85-.35,1.23,1.23,0,0,1,0-1.74l34.72-35.91a1.23,1.23,0,0,1,1.77,1.71l-34.72,35.91A1.24,1.24,0,0,1,677,116.94Z"/><path class="cls-1" d="M47.92,109.63a1.2,1.2,0,0,1-1-.45L4.65,57.45a1.23,1.23,0,0,1,1.91-1.56l42.31,51.73a1.23,1.23,0,0,1-.95,2Z"/><path class="cls-1" d="M45.14,116.94a1.22,1.22,0,0,1-.88-.38L9.54,80.65a1.23,1.23,0,0,1,1.77-1.71L46,114.85a1.23,1.23,0,0,1,0,1.74A1.2,1.2,0,0,1,45.14,116.94Z"/><text class="cls-15" transform="translate(153.6 109.38)">ワ<tspan class="cls-16" x="17.19" y="0">ー</tspan><tspan class="cls-17" x="34.8" y="0">ク</tspan><tspan class="cls-18" x="51.61" y="0">シ</tspan><tspan class="cls-19" x="68" y="0">ョ</tspan><tspan class="cls-20" x="83.81" y="0">ッ</tspan><tspan class="cls-21" x="100.4" y="0">プ</tspan><tspan class="cls-22" x="118.02" y="0">ア</tspan><tspan class="cls-23" x="135.29" y="0">カ</tspan><tspan class="cls-24" x="152.39" y="0">デ</tspan><tspan class="cls-25" x="168.83" y="0">ミ</tspan><tspan class="cls-26" x="185.15" y="0">ー</tspan></text><path class="cls-27" d="M645,109.11l-.24,2a14.34,14.34,0,0,0,1.4.88l1.7-1.12.29,2c.25.1.51.18.78.26a7.94,7.94,0,0,0,.8.22l1.35-1.51.8,1.87a15.16,15.16,0,0,0,1.65,0l.91-1.81,1.26,1.59a15,15,0,0,0,1.61-.37l.41-2,1.62,1.22c.5-.24,1-.5,1.46-.78l-.11-2,1.88.76a16,16,0,0,0,1.21-1.13l-.64-1.93,2,.25a14.49,14.49,0,0,0,.88-1.41l-1.12-1.7,2-.28c.1-.26.19-.52.27-.79s.15-.53.21-.8l-1.51-1.35,1.87-.79a15.42,15.42,0,0,0,0-1.66L666,97.87l1.59-1.25a14,14,0,0,0-.37-1.61l-2-.41L666.4,93a13.63,13.63,0,0,0-.78-1.46l-2,.12.76-1.88a12.94,12.94,0,0,0-1.13-1.21l-1.93.63.25-2c-.31-.22-.64-.4-1-.6l1.47-1.65,1,2.34a17.65,17.65,0,0,0,2.06.06l1.15-2.26,1.56,2a20.18,20.18,0,0,0,2-.47l.52-2.49,2,1.52c.31-.14.62-.29.92-.46s.61-.33.9-.51l-.14-2.54,2.35,1a16.89,16.89,0,0,0,1.51-1.41l-.79-2.41,2.51.3a17.6,17.6,0,0,0,1.09-1.75l-1.39-2.12,2.51-.36a17.34,17.34,0,0,0,.6-2l-1.89-1.69,2.33-1a17.9,17.9,0,0,0,.07-2.07l-2.26-1.14,2-1.57a18.19,18.19,0,0,0-.46-2l-2.49-.51,1.52-2c-.14-.31-.3-.62-.46-.93s-.34-.61-.52-.9l-2.53.14,1-2.35a20.15,20.15,0,0,0-1.41-1.51l-2.41.8.3-2.52A16.66,16.66,0,0,0,673.42,53l-2.12,1.39L671,51.83a17.34,17.34,0,0,0-2-.6l-1.69,1.89-1-2.33a20.45,20.45,0,0,0-2.07-.07L663.07,53l-1.56-2a18.25,18.25,0,0,0-2,.47L659,53.94l-2-1.52-.92.46c-.31.17-.61.34-.9.52l.14,2.53-2.35-1a17,17,0,0,0-1.51,1.42l.8,2.4-2.52-.3a17.75,17.75,0,0,0-1.09,1.76L650,62.38l-2.51.35a17.5,17.5,0,0,0-.6,2l1.89,1.69-2.33,1a17.75,17.75,0,0,0-.07,2.07l2.26,1.14-2,1.56a17.21,17.21,0,0,0,.46,2l2.49.52-1.52,2c.14.31.3.62.46.93s.34.6.52.89l2.53-.14-1,2.36a18.24,18.24,0,0,0,1.41,1.5l2.41-.79-.3,2.51a16.74,16.74,0,0,0,1.76,1.1l2.12-1.4.35,2.51c.42.16.86.27,1.29.39l-1.23.81-.29-2-.79-.26-.8-.22-1.35,1.52-.79-1.88a15.42,15.42,0,0,0-1.66,0l-.91,1.82-1.25-1.6a14.49,14.49,0,0,0-1.61.38l-.41,2L647,85.86c-.5.24-1,.5-1.46.79l.12,2-1.88-.76c-.11.09-.21.2-.31.3l-.67-1L644,87a9.32,9.32,0,0,0,.3-1l-.95-.85,1.17-.49a9,9,0,0,0,0-1l-1.13-.57,1-.78c0-.17-.07-.34-.11-.51s-.08-.33-.13-.5L643,81l.76-1a7.21,7.21,0,0,0-.49-.91l-1.26.07.47-1.18a10,10,0,0,0-.71-.75l-1.2.4.15-1.26a8.69,8.69,0,0,0-.88-.55l-1.06.7-.18-1.26a8.1,8.1,0,0,0-1-.3l-.84,1-.5-1.17a8.8,8.8,0,0,0-1,0l-.57,1.13-.78-1-.51.1-.5.14-.26,1.24-1-.76a8.71,8.71,0,0,0-.91.48l.07,1.27-1.18-.47a8.39,8.39,0,0,0-.75.71l.4,1.2-1.26-.15a8.69,8.69,0,0,0-.55.88l.7,1.06-1.26.17a9.32,9.32,0,0,0-.3,1l.94.85-1.16.5c0,.34,0,.68,0,1l1.14.57-1,.78c0,.17.06.34.1.51s.09.33.14.5l1.24.26-.77,1a8.77,8.77,0,0,0,.49.91l1.27-.07-.47,1.18a9.87,9.87,0,0,0,.7.75l1.21-.4-.15,1.26a9.8,9.8,0,0,0,.87.55l1.07-.7.17,1.26a9.32,9.32,0,0,0,1,.3l.85-1L634.6,93a9,9,0,0,0,1,0l.57-1.13.78,1,.51-.1.5-.14.26-1.24,1,.76a8.71,8.71,0,0,0,.91-.48l-.07-1.27,1,.39a13.82,13.82,0,0,0-.82,1.32l1.11,1.7-2,.28c-.09.26-.18.52-.26.79s-.15.53-.22.8l1.52,1.35-1.87.8a13,13,0,0,0,0,1.65l1.81.91-1.6,1.25a14.67,14.67,0,0,0,.38,1.62l2,.41-1.22,1.62a13.63,13.63,0,0,0,.78,1.46l2-.12-.76,1.89a16.16,16.16,0,0,0,1.14,1.2Zm13.29-49,3.55,6.63a3.69,3.69,0,0,0-.77,2.56l-6.63,3.55A11,11,0,0,1,658.24,60.12Zm15.32,2.48-6.63,3.54a3.73,3.73,0,0,0-2.56-.77l-3.55-6.63A11,11,0,0,1,673.56,62.6Zm-2.47,15.31-3.55-6.63a3.67,3.67,0,0,0,.77-2.55l6.63-3.55A11,11,0,0,1,671.09,77.91Zm-15.32-2.47,6.63-3.55a3.63,3.63,0,0,0,2.56.77l3.55,6.63A11,11,0,0,1,655.77,75.44ZM630.31,85.82,634,85a1.79,1.79,0,0,0,1.13.7l.85,3.65A5.46,5.46,0,0,1,630.31,85.82Zm3.16-7,.85,3.64a1.82,1.82,0,0,0-.7,1.13L630,84.4A5.46,5.46,0,0,1,633.47,78.77Zm7,3.16-3.64.85a1.81,1.81,0,0,0-1.14-.7l-.85-3.65A5.47,5.47,0,0,1,640.52,81.93Zm-3.16,7-.85-3.64a1.82,1.82,0,0,0,.7-1.13l3.64-.86A5.44,5.44,0,0,1,637.36,89Zm4.68,1.2-.4-1.2.89.11.62,1.88-1.72-.21A6.65,6.65,0,0,0,642,90.18Zm12.48.3-1.74,5.76a2.87,2.87,0,0,0-1.88,1l-5.76-1.74A8.76,8.76,0,0,1,654.52,90.48Zm7.27,10.06L656,98.8a3,3,0,0,0-1-1.89l1.74-5.75A8.77,8.77,0,0,1,661.79,100.54Zm-10.07,7.27,1.75-5.76a3,3,0,0,0,1.88-1l5.76,1.74A8.8,8.8,0,0,1,651.72,107.81Zm-7.26-10.07,5.76,1.75a2.89,2.89,0,0,0,1,1.88l-1.74,5.76A8.78,8.78,0,0,1,644.46,97.74Z"/><path class="cls-27" d="M144,89.67l-10.13-6.75c-1.27-.85-3.4-1.22-3.77-.67l-2.88,4.32s2.4,2,3.11,2.55-.15.94-.41,1.33.74,1,.48,1.44-1.58-.5-1.84-.12,1.07,1.27.81,1.66-1.58-.5-1.84-.11,1.07,1.27.81,1.65-1.58-.5-1.84-.11,1.07,1.27.82,1.66-1.59-.51-1.85-.12,1.07,1.27.82,1.66-1.59-.5-1.85-.12,1.08,1.27.82,1.66-1.59-.5-1.85-.12,1.08,1.28.82,1.66-1.59-.5-1.84-.11,1.07,1.27.81,1.65-1.58-.5-1.84-.11,1.07,1.27.82,1.65-1.59-.5-1.85-.11,1.08,1.27.82,1.65-1.59-.5-1.84-.11,1.07,1.27.81,1.65-.92-.06-1.18.33,1.67,2.38,3.41,3.53c2.21,1.48,4.22,2.31,5,1.23.25-.39-.41-.83-.15-1.22s1.58.5,1.84.11-1.07-1.27-.81-1.66,1.58.5,1.84.12-1.07-1.27-.81-1.66,1.58.5,1.84.12-1.07-1.28-.82-1.66,1.59.5,1.85.11-1.08-1.27-.82-1.65,1.59.5,1.85.11-1.08-1.27-.82-1.66,1.59.5,1.84.12-1.07-1.27-.81-1.66,1.58.5,1.84.12-1.07-1.27-.81-1.66,1.58.5,1.84.12-1.07-1.27-.82-1.66,1.59.5,1.85.12-1.08-1.27-.82-1.66,1.59.5,1.84.12-.59-1.35-.15-1.21c1,.31.53-1.4,1.54-.88l3.55,1.89L146,92.89C146.4,92.34,145.24,90.51,144,89.67Z"/><path class="cls-27" d="M112.68,71.44l-12.07,1.5c-1.51.19-3.37,1.3-3.29,2L98,80.05l4-.1c.9,0,.5.81.56,1.27.08.61,1.25.31,1.3.77s-1.53.66-1.47,1.12,1.65.27,1.7.73-1.53.65-1.47,1.11,1.64.27,1.7.73-1.53.65-1.47,1.11,1.64.27,1.7.73-1.53.65-1.47,1.11,1.64.27,1.7.73-1.53.65-1.47,1.11,1.64.26,1.7.72-1.53.66-1.47,1.12,1.64.26,1.7.72-1.53.66-1.47,1.12,1.64.26,1.7.72-1.53.66-1.47,1.12,1.64.26,1.7.72-1.53.66-1.47,1.12,1.64.26,1.7.72-1.53.65-1.47,1.11,1.64.26,1.7.72-.74.56-.68,1,2.81.71,4.88.45c2.65-.33,4.71-1,4.55-2.31-.06-.46-.85-.36-.91-.82s1.53-.66,1.47-1.12-1.64-.26-1.7-.72,1.53-.66,1.47-1.12-1.64-.27-1.7-.73,1.53-.65,1.47-1.11-1.64-.26-1.7-.72,1.53-.66,1.47-1.12-1.64-.26-1.7-.72,1.53-.66,1.47-1.12-1.64-.26-1.7-.72,1.53-.66,1.47-1.12-1.64-.26-1.7-.72,1.53-.66,1.47-1.12-1.64-.26-1.7-.72,1.53-.66,1.47-1.12-1.64-.26-1.7-.72,1.53-.65,1.47-1.11-1.64-.26-1.7-.72,1.53-.66,1.48-1.12-1.33-.63-.91-.82c1-.43-.51-1.4.6-1.66.84-.21,3.91-.89,3.91-.89l-.64-5.16C116.27,71.86,114.19,71.25,112.68,71.44Z"/><path class="cls-27" d="M72.67,61.1l-5,2.08L57.56,38.71l-4.3-1.8-1.79,4.3L61.52,65.68l-5.05,2.07a2.13,2.13,0,0,0-1.16,2.78l1.06,2.56a2.11,2.11,0,0,0,2.77,1.16l2.16-.89a2.13,2.13,0,1,1,1.62,3.94l-2.17.88A2.13,2.13,0,0,0,59.6,81l14.75,35.92A2.12,2.12,0,0,0,77.12,118l16.2-6.65a2.13,2.13,0,0,0,1.16-2.78L79.73,72.69A2.13,2.13,0,0,0,77,71.53l-2.16.89a2.12,2.12,0,0,1-1.61-3.93l2.16-.89a2.13,2.13,0,0,0,1.16-2.78l-1.06-2.56A2.11,2.11,0,0,0,72.67,61.1Zm8.8,51.39-3.16,1.3L64.88,81.08,68,79.78Zm-5.41-36,13.43,32.7-3.16,1.3L72.9,77.79Z"/><text class="cls-28" transform="translate(510.1 108.59)">花<tspan class="cls-3" x="20.05" y="0">園</tspan><tspan class="cls-4" x="39.97" y="0">中央</tspan><tspan class="cls-5" x="79.57" y="0">公</tspan><tspan class="cls-6" x="99.4" y="0">園</tspan></text><path class="cls-29" d="M385,16.56A12.19,12.19,0,1,1,372.86,4.37,12.19,12.19,0,0,1,385,16.56Z"/><rect class="cls-30" x="367.15" y="33.33" width="11.49" height="147.38"/><path class="cls-31" d="M384.81,34.33l23.93,8.24-23.93,8.28Z"/><path class="cls-30" d="M384.81,54.48l23.93,8.24L384.81,71Z"/><path class="cls-29" d="M384.81,74.62l23.93,8.24-23.93,8.28Z"/><path class="cls-32" d="M384.81,94.77,408.74,103l-23.93,8.28Z"/><path class="cls-33" d="M414,44.4l23.92,8.24L414,60.92Z"/><path class="cls-31" d="M414,64.53l23.92,8.24L414,81.05Z"/><path class="cls-30" d="M414,84.66l23.92,8.24L414,101.18Z"/><path class="cls-29" d="M443.16,54.47l23.92,8.24L443.16,71Z"/><path class="cls-32" d="M443.16,74.55l23.92,8.24-23.92,8.28Z"/><path class="cls-33" d="M472.33,64.5l23.93,8.24L472.33,81Z"/><path class="cls-32" d="M631.81,125.39a4.18,4.18,0,0,0-4.64,1.27l-14.54,17.6-2.25-2.71a4.18,4.18,0,0,0-6.45,5.33l5.47,6.62a4.18,4.18,0,0,0,6.45,0L626.21,141v35.53a4.19,4.19,0,1,0,8.37,0V129.32A4.18,4.18,0,0,0,631.81,125.39Z"/><path class="cls-32" d="M594.86,125.14a4.19,4.19,0,0,0-4.19,4.18v47.17a4.19,4.19,0,1,0,8.37,0V129.32A4.18,4.18,0,0,0,594.86,125.14Z"/><path class="cls-33" d="M658,138.41l-7.74-11.47a4.19,4.19,0,1,0-6.94,4.68l7.74,11.47a4.18,4.18,0,0,0,3.47,1.85,4.13,4.13,0,0,0,2.34-.72A4.19,4.19,0,0,0,658,138.41Z"/><path class="cls-33" d="M678.15,125.81a4.19,4.19,0,0,0-5.81,1.13l-14.52,21.51a4.24,4.24,0,0,0-.71,2.34v25.68a4.19,4.19,0,1,0,8.37,0v-24.4l13.8-20.45A4.2,4.2,0,0,0,678.15,125.81Z"/><path class="cls-33" d="M450,180.73a16,16,0,0,1-15.93-15.93V141.06a15.94,15.94,0,1,1,31.87,0,4.19,4.19,0,1,1-8.37,0,7.57,7.57,0,0,0-15.13,0V164.8a7.57,7.57,0,0,0,15.13,0,4.19,4.19,0,1,1,8.37,0A16,16,0,0,1,450,180.73Z"/><path class="cls-32" d="M410.25,125.08a16,16,0,0,0-15.94,16v35.51a4.19,4.19,0,0,0,8.38,0V141a7.57,7.57,0,1,1,15.13,0v11.21h-7.48a4.19,4.19,0,1,0,0,8.37h7.48v15.93a4.19,4.19,0,0,0,8.37,0V141A16,16,0,0,0,410.25,125.08Z"/><path class="cls-31" d="M489.44,125.08a16,16,0,0,0-15.93,16v35.51a4.19,4.19,0,0,0,8.37,0V141A7.57,7.57,0,1,1,497,141v11.21h-7.48a4.19,4.19,0,1,0,0,8.37H497v15.93a4.19,4.19,0,0,0,8.37,0V141A16,16,0,0,0,489.44,125.08Z"/><path class="cls-30" d="M517.6,180.72a4.19,4.19,0,0,1-4.19-4.18V129.36a4.18,4.18,0,0,1,3.81-4.16c.84-.08,8.44-.68,14.33,2.22,5.7,2.81,12.46,7.59,14.2,19.76,1.14,7.95-.21,16.12-3.61,21.85a33.11,33.11,0,0,1-10.72,10.74,4.19,4.19,0,0,1-4.21-7.24,24.82,24.82,0,0,0,7.73-7.76c2.38-4,3.37-10.46,2.53-16.4-1.11-7.77-4.65-11-9.62-13.44a17.42,17.42,0,0,0-6.06-1.39v43A4.19,4.19,0,0,1,517.6,180.72Z"/><path class="cls-29" d="M578.71,172.35H560.54v-16.9h12.34a4.19,4.19,0,0,0,0-8.37H560.54V133.55h18.17a4.19,4.19,0,0,0,0-8.37H556.35a4.18,4.18,0,0,0-4.18,4.18v47.18a4.19,4.19,0,0,0,4.18,4.19h22.36a4.19,4.19,0,0,0,0-8.38Z"/><path class="cls-31" d="M50,128.54A4.18,4.18,0,1,0,41.74,130l8.37,47.23a4.18,4.18,0,0,0,4.11,3.45,4.71,4.71,0,0,0,.74-.06,4.2,4.2,0,0,0,3.39-4.85Z"/><path class="cls-31" d="M87.52,125.13a4.17,4.17,0,0,0-4.86,3.38l-5.41,30.36-6.93-22.25a4.19,4.19,0,0,0-4-2.94h0a4.17,4.17,0,0,0-4,2.94l-5,15.82a4.19,4.19,0,0,0,8,2.5l1-3,8,25.83a4.18,4.18,0,0,0,4,2.94h.27a4.17,4.17,0,0,0,3.85-3.44L90.9,130A4.18,4.18,0,0,0,87.52,125.13Z"/><path class="cls-29" d="M161.41,180.68a4.18,4.18,0,0,1-3.85-2.55l-8.73-20.57a4.18,4.18,0,0,1,1.88-5.32c.25-.14,6.71-3.81,6-11-.35-3.59-2.64-6.15-6.46-7.2a25.14,25.14,0,0,0-5.84-.56v43a4.19,4.19,0,0,1-8.37,0V129.32a4.18,4.18,0,0,1,4.19-4.18h1.31c4,0,7.73,0,10.93.86,7.19,2,11.89,7.38,12.57,14.46a19.35,19.35,0,0,1-7.21,16.92l7.42,17.48a4.18,4.18,0,0,1-2.22,5.49A4.24,4.24,0,0,1,161.41,180.68Z"/><path class="cls-29" d="M328.31,180.68a4.18,4.18,0,0,1-4.19-4.18V129.32a4.18,4.18,0,0,1,4.19-4.18h1.32c4,0,7.72,0,10.92.86,7.19,2,11.89,7.38,12.58,14.46,1.24,12.78-9.93,18.9-10.4,19.16a4.19,4.19,0,0,1-4-7.37c.33-.18,6.73-3.85,6-11-.35-3.59-2.65-6.15-6.47-7.2a25.14,25.14,0,0,0-5.84-.56v43A4.18,4.18,0,0,1,328.31,180.68Z"/><path class="cls-32" d="M176.74,125.14a4.18,4.18,0,0,0-4.19,4.18V176.5a4.19,4.19,0,0,0,8.37,0V129.32A4.18,4.18,0,0,0,176.74,125.14Z"/><path class="cls-32" d="M193.43,153.14l9.8-22.12a4.18,4.18,0,0,0-7.65-3.39L185,151.46a4.2,4.2,0,0,0,0,3.42l10.56,23.34a4.18,4.18,0,0,0,3.82,2.46,4.23,4.23,0,0,0,1.72-.37,4.18,4.18,0,0,0,2.09-5.54Z"/><path class="cls-33" d="M223.42,180.71a17.05,17.05,0,0,1-4.4-.58,13.51,13.51,0,0,1-10.12-14.58,4.18,4.18,0,1,1,8.32.91,5.12,5.12,0,0,0,4,5.58,7.51,7.51,0,0,0,6.33-1,5.24,5.24,0,0,0,1.92-4.4c0-3-4.67-7-8.79-10.65-5.69-5-11.57-10.16-11.57-16.85a13.53,13.53,0,0,1,5.19-11,15.72,15.72,0,0,1,13.6-2.41A13.51,13.51,0,0,1,238,140.31a4.19,4.19,0,0,1-8.33-.86,5.12,5.12,0,0,0-4-5.63,7.55,7.55,0,0,0-6.33,1,5.23,5.23,0,0,0-1.91,4.4c0,2.9,4.63,7,8.72,10.55,5.72,5,11.64,10.21,11.64,17a13.53,13.53,0,0,1-5.2,11A15.1,15.1,0,0,1,223.42,180.71Z"/><path class="cls-31" d="M249.64,125.14a4.18,4.18,0,0,0-4.19,4.18V176.5a4.19,4.19,0,0,0,8.37,0V129.32A4.18,4.18,0,0,0,249.64,125.14Z"/><path class="cls-31" d="M273,125.14a4.18,4.18,0,0,0-4.18,4.18v19.53h-7.17a4.19,4.19,0,0,0,0,8.38h7.17V176.5a4.19,4.19,0,0,0,8.37,0V129.32A4.19,4.19,0,0,0,273,125.14Z"/><path class="cls-30" d="M112.32,125.12a16,16,0,0,0-15.93,15.94v23.7a15.94,15.94,0,0,0,31.87,0v-23.7A16,16,0,0,0,112.32,125.12Zm0,47.2a7.57,7.57,0,0,1-7.56-7.56v-23.7a7.57,7.57,0,0,1,15.13,0v.09a7.82,7.82,0,0,0-7.81,7.83v9.2a7.81,7.81,0,0,0,7.68,7.81A7.55,7.55,0,0,1,112.32,172.32Z"/><path class="cls-30" d="M300.65,125.13a16,16,0,0,0-15.94,16V164.8a15.94,15.94,0,1,0,31.87,0V141.08A16,16,0,0,0,300.65,125.13Zm0,47.24a7.58,7.58,0,0,1-7.57-7.57V141.08a7.57,7.57,0,1,1,15.13,0v.07a7.82,7.82,0,0,0-7.82,7.83v9.2a7.81,7.81,0,0,0,7.7,7.81A7.55,7.55,0,0,1,300.65,172.37Z"/><circle class="cls-34" cx="491.65" cy="102.08" r="12.78"/><text class="cls-35" transform="translate(484.5 108.32)"><tspan class="cls-14">i</tspan><tspan x="4.75" y="0">n </tspan></text><path class="cls-27" d="M674.27,109.63a1.21,1.21,0,0,1-.78-.28,1.23,1.23,0,0,1-.18-1.73l42.32-51.73a1.23,1.23,0,1,1,1.9,1.56l-42.31,51.73A1.22,1.22,0,0,1,674.27,109.63Z"/><path class="cls-27" d="M677,116.94a1.18,1.18,0,0,1-.85-.35,1.23,1.23,0,0,1,0-1.74l34.72-35.91a1.23,1.23,0,0,1,1.77,1.71l-34.72,35.91A1.24,1.24,0,0,1,677,116.94Z"/><path class="cls-27" d="M47.92,109.63a1.2,1.2,0,0,1-1-.45L4.65,57.45a1.23,1.23,0,0,1,1.91-1.56l42.31,51.73a1.23,1.23,0,0,1-.95,2Z"/><path class="cls-27" d="M45.14,116.94a1.22,1.22,0,0,1-.88-.38L9.54,80.65a1.23,1.23,0,0,1,1.77-1.71L46,114.85a1.23,1.23,0,0,1,0,1.74A1.2,1.2,0,0,1,45.14,116.94Z"/><text class="cls-36" transform="translate(153.6 109.38)">ワ<tspan class="cls-16" x="17.19" y="0">ー</tspan><tspan class="cls-17" x="34.8" y="0">ク</tspan><tspan class="cls-18" x="51.61" y="0">シ</tspan><tspan class="cls-19" x="68" y="0">ョ</tspan><tspan class="cls-20" x="83.81" y="0">ッ</tspan><tspan class="cls-21" x="100.4" y="0">プ</tspan><tspan class="cls-22" x="118.02" y="0">ア</tspan><tspan class="cls-23" x="135.29" y="0">カ</tspan><tspan class="cls-24" x="152.39" y="0">デ</tspan><tspan class="cls-25" x="168.83" y="0">ミ</tspan><tspan class="cls-26" x="185.15" y="0">ー</tspan></text></g></g></svg>