<svg xmlns="http://www.w3.org/2000/svg" viewBox="0 0 358.44 239.77"><defs><style>.cls-1{fill:#e71f19;}.cls-2{fill:#fff;}.cls-3{fill:#e60012;}</style></defs><title>sugoi_logo</title><g id="レイヤー_2" data-name="レイヤー 2"><g id="レイヤー_1-2" data-name="レイヤー 1"><path class="cls-1" d="M348.34,11A33.8,33.8,0,0,0,320.57,1.5L232.89,11.65l-.37-.36A45.13,45.13,0,0,0,197.38.3a46.79,46.79,0,0,0-12,3.07,45.59,45.59,0,0,0-12.14-.22,48.41,48.41,0,0,0-32.88,19.21L85.15,28.75A34.93,34.93,0,0,0,61.58,42.16L36.29,45.52A35.23,35.23,0,0,0,6.16,76.61l-6,59.29a34,34,0,0,0,11,28.56c.33.3.67.59,1,.88a58.72,58.72,0,0,0,20,44.28,55.52,55.52,0,0,0,9.18,6.4,33.47,33.47,0,0,0,32.07,23.75,34.16,34.16,0,0,0,10-1.5l156.24-47.82a36.34,36.34,0,0,0,22.48-20.12l.85-.23a40,40,0,0,0,20.21,5.42A42.5,42.5,0,0,0,294.31,174a45.16,45.16,0,0,0,12.76-5.76h0A41.74,41.74,0,0,0,317.32,167c20.16-5.1,34.52-24.09,34.13-45.15a43.12,43.12,0,0,0-1.23-9.49,35.1,35.1,0,0,0,1.24-6.33l6.8-67.38A33.79,33.79,0,0,0,348.34,11"/><path class="cls-2" d="M334.48,25.08a14.17,14.17,0,0,0-11.64-4L224.61,32.49a25.37,25.37,0,0,0-5.2-6.42,25,25,0,0,0-19.75-6.15,27.71,27.71,0,0,0-12,4.4,25.54,25.54,0,0,0-12.19-1.55C165,24,156.23,31.24,152.24,40.87l-64.82,7.5a15.2,15.2,0,0,0-13.06,12L38.89,65.1A15.3,15.3,0,0,0,25.81,78.59l-6,59.3A13.93,13.93,0,0,0,33.4,153.37a45,45,0,0,0-1.52,11.72A39,39,0,0,0,45,194.64a36.37,36.37,0,0,0,14.9,7.74l-.23,2.29a14,14,0,0,0,5,12.23A13.78,13.78,0,0,0,73.43,220a14.23,14.23,0,0,0,4.21-.63l156.24-47.82a16.57,16.57,0,0,0,10.93-11.29l1.68-6.19s3.25-.84,4.5-1.18l16.51-4.5a20,20,0,0,0,3.34,3.23,20.35,20.35,0,0,0,12.41,4.13,22.55,22.55,0,0,0,5.88-.79,26.18,26.18,0,0,0,12-7.35,20.46,20.46,0,0,0,5.95.89,21.84,21.84,0,0,0,5.35-.67C323.65,145,331.92,134,331.7,122.2a22.22,22.22,0,0,0-2.85-10.61,15.37,15.37,0,0,0,3-7.56l6.8-67.38a14.16,14.16,0,0,0-4.13-11.57"/><path class="cls-3" d="M245.18,98.56l-6.87,9.52c-.65.9-1.1.74-1-.38l6.33-62.76a1.56,1.56,0,0,0-1.81-1.79L222.3,45.41a2.65,2.65,0,0,0-2.23,2.26L208.29,164.29a1.26,1.26,0,0,0,1.74,1.43l20.17-6.17a4.12,4.12,0,0,0,2.48-2.56L244.31,114a30.09,30.09,0,0,0,.73-4l1.13-11.12c.11-1.11-.33-1.28-1-.37"/><path class="cls-3" d="M274.66,39.35,257.82,41.3a2.63,2.63,0,0,0-2.22,2.26l-9.67,95.72a1.31,1.31,0,0,0,1.76,1.49L265,136.05a3.18,3.18,0,0,0,2.17-2.56l9.33-92.35a1.57,1.57,0,0,0-1.82-1.79"/><path class="cls-3" d="M126.7,66.11l-5.86.78.79-7.82a1.58,1.58,0,0,0-1.82-1.8L88.87,60.86a2.65,2.65,0,0,0-2.23,2.26l-.85,8.43-45.25,6a2.71,2.71,0,0,0-2.22,2.3l-6,59.29a1.41,1.41,0,0,0,1.79,1.62l27.64-5.72c-10.24,6.07-17.37,17.68-17.31,30,.08,16.47,13,27.93,28.91,25.61l.41-.07-1.55,15.36A1.25,1.25,0,0,0,74,207.36l31.78-9.72a3.33,3.33,0,0,0,2.15-2.63l7.17-71,6-1.23a3,3,0,0,0,2.2-2.44l5.3-52.5a1.54,1.54,0,0,0-1.81-1.76M73.25,167.54a5,5,0,0,1-5.85-5.17,7.06,7.06,0,0,1,5.79-6.88A5,5,0,0,1,79,160.66a7,7,0,0,1-5.78,6.88"/><path class="cls-3" d="M285.78,119.57c-5.9,1.6-10.67,8.11-10.66,14.54s4.81,10.33,10.72,8.73,10.67-8.12,10.65-14.54-4.81-10.34-10.71-8.73"/><path class="cls-3" d="M302.32,36.14l-15.48,1.8a2.65,2.65,0,0,0-2.23,2.26l-7.39,73.2a1.34,1.34,0,0,0,1.77,1.53l15.85-4A3.11,3.11,0,0,0,297,108.4l7.12-70.47a1.57,1.57,0,0,0-1.82-1.79"/><path class="cls-3" d="M324.29,33.6,311,35.14a2.66,2.66,0,0,0-2.23,2.26l-7.05,69.82a1.34,1.34,0,0,0,1.77,1.53l13.65-3.46a3.11,3.11,0,0,0,2.18-2.52l6.81-67.38a1.57,1.57,0,0,0-1.82-1.79"/><path class="cls-3" d="M309,114.25c-5.49,1.39-9.85,7.3-9.74,13.21s4.64,9.58,10.13,8.19,9.85-7.3,9.74-13.21-4.64-9.58-10.13-8.19"/><path class="cls-3" d="M177.05,66.15a16.38,16.38,0,0,0,12.07-8.36,12.58,12.58,0,0,0,12.1,5.51c8-.93,14.46-8.59,14.43-17.13s-6.54-14.69-14.54-13.76A16.4,16.4,0,0,0,189,40.77,12.6,12.6,0,0,0,177,35.26c-8,.93-14.46,8.6-14.43,17.13s6.53,14.69,14.53,13.76"/><path class="cls-3" d="M200.3,118.06l-65.43,14.82a3,3,0,0,0-2.19,2.47l-5.42,53.74a1.26,1.26,0,0,0,1.74,1.43l66.08-20.22a3.34,3.34,0,0,0,2.15-2.63l4.85-48a1.38,1.38,0,0,0-1.78-1.58"/><path class="cls-3" d="M189.52,64.5a20,20,0,0,1-12,6,17.06,17.06,0,0,1-13.38-4.13,18.66,18.66,0,0,1-6.05-13.55l-15.29,1.77a2.65,2.65,0,0,0-2.23,2.26l-5.18,51.33a1.42,1.42,0,0,0,1.79,1.63l37.36-7.43c1.1-.22,1.51.38.92,1.33l-7.82,12.54c-.6,1-.18,1.53.91,1.29l8.14-1.77a11.08,11.08,0,0,0,3.62-1.64l22.43-16.5a5.23,5.23,0,0,0,1.85-3.23L207.5,66a18.9,18.9,0,0,1-5.78,1.65,17,17,0,0,1-12.2-3.17"/></g></g></svg>